<?xml version="1.0" encoding="UTF-8" standalone="no"?>
<!-- Created with Inkscape (http://www.inkscape.org/) -->

<svg
   width="1920"
   height="1080"
   viewBox="0 0 507.99999 285.75"
   version="1.1"
   id="svg1"
   inkscape:version="1.4 (86a8ad7, 2024-10-11)"
   sodipodi:docname="background-img.svg"
   xmlns:inkscape="http://www.inkscape.org/namespaces/inkscape"
   xmlns:sodipodi="http://sodipodi.sourceforge.net/DTD/sodipodi-0.dtd"
   xmlns="http://www.w3.org/2000/svg"
   xmlns:svg="http://www.w3.org/2000/svg">
  <sodipodi:namedview
     id="namedview1"
     pagecolor="#505050"
     bordercolor="#eeeeee"
     borderopacity="1"
     inkscape:showpageshadow="0"
     inkscape:pageopacity="0"
     inkscape:pagecheckerboard="0"
     inkscape:deskcolor="#505050"
     inkscape:document-units="px"
     inkscape:zoom="0.52221046"
     inkscape:cx="993.85217"
     inkscape:cy="621.39697"
     inkscape:window-width="1920"
     inkscape:window-height="1009"
     inkscape:window-x="1912"
     inkscape:window-y="283"
     inkscape:window-maximized="1"
     inkscape:current-layer="layer1" />
  <defs
     id="defs1">
    <linearGradient
       id="swatch1">
      <stop
         style="stop-color:#0b8100;stop-opacity:1;"
         offset="0"
         id="stop1" />
    </linearGradient>
  </defs>
  <g
     inkscape:label="Layer 1"
     inkscape:groupmode="layer"
     id="layer1">
    <rect
       style="fill:#ae76d8;fill-opacity:1;stroke:#000000;stroke-width:0.264583"
       id="rect1"
       width="518.82019"
       height="299.43628"
       x="-0.50666034"
       y="-3.0399621" />
  </g>
  <g
     inkscape:groupmode="layer"
     id="layer2"
     inkscape:label="Layer 2">
    <path
       style="fill:#9ff4f9;fill-opacity:1;stroke:#000000;stroke-width:0.264583"
       d="m 20.807427,30.971368 c 0.0019,0.617096 -0.273806,1.200111 -0.358264,1.791314 -0.11693,0.818523 0.102539,1.687545 0,2.50784 -0.0586,0.468786 -0.402116,0.84809 -0.537393,1.253921 -0.03022,0.09066 -0.258532,2.349043 -0.17913,2.50784 0.04284,0.08569 2.818206,1.412526 2.866101,1.433052 0.109765,0.04704 0.240043,-0.01688 0.358264,0 0.560645,-0.319256 0.827662,0.273013 1.253919,0.358265 0.175654,0.03513 0.358264,0 0.537395,0 0.238842,0.05971 0.479806,0.111495 0.716526,0.179131 1.51025,0.431501 2.986847,1.115036 4.478287,1.612183 0.710298,0.236765 1.424723,0.714443 2.149579,0.895656 0.115855,0.02896 0.242408,-0.02896 0.358261,0 0.208862,0.05222 0.328533,0.306049 0.537396,0.358265 0.173783,0.04344 0.377174,-0.08011 0.537395,0 0.119419,0.05971 0.06464,0.289568 0.179131,0.358261 0.01167,0.007 1.214847,0.338728 1.253921,0.358265 0.05341,0.0267 -0.0267,0.125725 0,0.179131 0.07283,0.145653 0.284154,0.148214 0.179131,0.358261 -0.226873,0.453745 -1.595258,1.65779 -1.970448,1.970448 -0.852932,0.710776 0.244803,-0.709049 -0.895657,0.716526 -0.68559,0.85699 0.661263,-0.2525 -0.716526,0.895657 -1.034557,0.862131 -2.005226,1.820299 -3.045235,2.686973 -1.457856,1.214879 -2.88712,2.360234 -3.940892,3.940892 -0.244266,0.366398 -0.700778,0.68503 -0.895657,1.074788 -0.706712,1.413425 0.760958,2.202897 1.612183,3.224365 0.88002,1.05603 1.032436,2.62344 1.791314,3.76176 0.18887,0.28331 0.690512,0.86965 0.895657,1.07479 0.219387,0.21939 0.525878,0.25142 0.716526,0.5374 0.149797,0.22469 0.264367,0.58001 0.537395,0.71652 0.775542,0.38777 1.971538,-0.47853 2.50784,-0.89565 1.365004,-1.06167 2.825687,-2.24438 3.940895,-3.58263 0.508558,-0.61028 0.25032,-0.60859 0.895657,-1.25392 0.44238,-0.44239 1.02558,-0.74459 1.433052,-1.253924 0.554625,-0.693282 0.944457,-1.416687 1.433052,-2.149578 0.666456,-0.999686 0.06577,0.405855 0.716526,-0.895657 0.08444,-0.168888 0.08198,-0.375483 0.179131,-0.537395 0.260525,-0.434208 0.656137,-0.77488 0.895657,-1.253921 0.214958,-0.429916 0.559223,-1.096619 0.895657,-1.433052 0.04222,-0.04222 0.136911,0.04222 0.179133,0 0.201848,-0.201848 -0.27486,-0.537393 0.179131,-0.537393 0.56252,0 1.119243,0.6218 1.612183,0.895657 0.397515,0.220843 0.859094,0.31178 1.253921,0.537393 0.624816,0.357039 1.16059,0.893508 1.791314,1.253921 0.231849,0.132485 0.499232,0.203052 0.716526,0.358264 0.206142,0.147244 0.317442,0.411708 0.537395,0.537393 0.213755,0.122147 0.496324,0.06903 0.716526,0.179133 0.151056,0.07553 0.238844,0.23884 0.358264,0.358262 0.17913,0.11942 0.33951,0.273458 0.53739,0.358262 1.49125,0.372811 0.0169,-0.08114 1.25392,0.537395 0.94592,0.472956 2.08164,0.661818 3.04524,1.07479 0.19788,0.08481 0.33315,0.290182 0.53739,0.358262 0.16994,0.05665 0.36174,-0.03513 0.5374,0 0.30666,0.06133 0.98717,0.404019 1.25392,0.537395 0.19256,0.09628 0.33315,0.290183 0.53739,0.358263 0.16994,0.0566 0.36746,-0.0567 0.5374,0 0.31328,0.10443 0.73906,0.4031 1.07478,0.53739 0.43509,0.17404 0.86367,0.42225 0.89566,0.35827 0.1101,-0.2202 0.10128,-0.48297 0.17913,-0.71653 0.16601,-0.498028 0.66832,-0.79923 0.89566,-1.253919 0.28231,-0.564623 0.43281,-1.223872 0.71653,-1.791316 0.29283,-0.585666 1.60179,-2.159971 0.89565,-2.866102 -0.0944,-0.09441 -0.254,-0.09573 -0.35826,-0.179133 -0.5483,-0.43864 -0.44671,-0.610169 -1.07479,-0.895657 -1.04455,-0.474798 -2.32192,-0.860618 -3.40349,-1.253919 -0.23137,-0.08414 -0.49633,-0.06903 -0.71653,-0.179133 -2.13363,-1.600224 0.57928,0.289639 -1.43305,-0.716526 -0.26704,-0.133517 -0.4495,-0.403876 -0.71653,-0.537393 -0.46845,-0.234225 -0.81373,-0.09415 -1.25392,-0.358264 -0.14482,-0.08689 -0.21344,-0.27137 -0.35826,-0.358262 -0.32383,-0.194297 -0.73702,-0.189378 -1.07479,-0.358264 -0.61032,-0.30516 -1.43671,-1.032748 -1.97045,-1.433052 -0.35258,-0.264436 -0.58212,-0.38063 -0.895654,-0.537393 -0.03167,-0.01585 -1.061368,-1.213654 -1.07479,-1.253921 -0.204668,-0.614008 0.666192,-1.561852 1.07479,-1.970448 0.579854,-0.579858 1.339074,-1.08604 1.970444,-1.612183 1.45507,-1.212556 2.61093,-2.790055 3.94089,-4.120022 0.21111,-0.211109 0.51681,-0.315484 0.71653,-0.537396 0.62073,-0.689699 1.22569,-1.57454 1.79132,-2.328709 0.35826,-0.477684 0.88596,-0.866589 1.07478,-1.433052 0.0566,-0.169939 -0.0434,-0.363611 0,-0.537395 0.041,-0.163843 0.28274,-0.207206 0.35827,-0.358262 0.0534,-0.106815 -0.0844,-0.27382 0,-0.358264 0.0597,-0.05971 0.23884,-0.11942 0.17913,-0.179131 -0.92565,-0.925647 -4.15274,-1.390144 -5.37395,-1.612183 -0.9154,-0.166439 -3.54736,-1.110049 -3.58263,-1.074787 -0.0944,0.09441 -0.0957,0.254002 -0.17913,0.358261 -0.59769,0.747117 -1.398576,1.387089 -1.970444,2.149578 -0.160218,0.213628 -0.216736,0.490083 -0.358262,0.716526 -0.349599,0.559356 -0.922189,1.059297 -1.253921,1.612183 -0.368356,0.613926 -0.359399,1.613321 -0.895657,2.149579 -0.09441,0.09441 -0.263853,0.08472 -0.358264,0.17913 -0.234717,0.234718 -0.517845,0.82644 -0.716526,1.074788 -0.313407,0.391761 -0.773904,0.673611 -1.074788,1.074791 -0.08011,0.106812 -0.08472,0.263853 -0.179131,0.358261 -0.09441,0.09441 -0.263853,0.08472 -0.358264,0.179134 -0.06813,0.06813 -0.134538,0.705186 -0.358262,0.537392 -0.405328,-0.303995 -0.662503,-0.780298 -1.07479,-1.074787 -0.217295,-0.15521 -0.490083,-0.216737 -0.716526,-0.358265 -0.900526,-0.562827 -1.616626,-1.376301 -2.50784,-1.970444 -1.83346,-1.222307 -3.781023,-2.069645 -5.732209,-3.045236 -0.415769,-0.207885 -1.456579,-0.672502 -1.791313,-0.895656 -0.536911,-0.357942 -1.175428,-0.850832 -1.791314,-1.074791 -0.462741,-0.16827 -0.975884,-0.175395 -1.433052,-0.358262 -0.156808,-0.06272 -0.201457,-0.295539 -0.358265,-0.358264 -0.166319,-0.06653 -0.361741,0.03513 -0.537392,0 -0.26185,-0.05237 -0.457468,-0.293497 -0.716526,-0.358262 -0.115856,-0.02896 -0.242409,0.02896 -0.358265,0 -0.324217,0.107966 -0.333152,-0.290184 -0.537395,-0.358264 -0.345908,-0.115303 -3.538532,-0.256302 -3.582628,-0.179131 -0.225615,0.394827 -0.358264,0.835946 -0.537395,1.253921 z"
       id="path7" />
    <path
       style="fill:#9ff4f9;fill-opacity:1;stroke:#000000;stroke-width:0.264583"
       d="m 444.14537,168.79081 c 0.002,0.61709 -0.2738,1.20011 -0.35826,1.79131 -0.11693,0.81852 0.10254,1.68755 0,2.50784 -0.0586,0.46879 -0.40212,0.84809 -0.53739,1.25392 -0.0302,0.0907 -0.25854,2.34904 -0.17913,2.50784 0.0428,0.0857 2.8182,1.41253 2.8661,1.43305 0.10976,0.047 0.24004,-0.0169 0.35826,0 0.56065,-0.31925 0.82766,0.27302 1.25392,0.35827 0.17565,0.0351 0.35826,0 0.5374,0 0.23884,0.0597 0.4798,0.11149 0.71652,0.17913 1.51025,0.4315 2.98685,1.11504 4.47829,1.61218 0.7103,0.23677 1.42472,0.71445 2.14958,0.89566 0.11585,0.029 0.24241,-0.029 0.35826,0 0.20886,0.0522 0.32853,0.30605 0.53739,0.35826 0.17379,0.0434 0.37718,-0.0801 0.5374,0 0.11942,0.0597 0.0646,0.28957 0.17913,0.35826 0.0117,0.007 1.21485,0.33873 1.25392,0.35827 0.0534,0.0267 -0.0267,0.12572 0,0.17913 0.0728,0.14565 0.28416,0.14821 0.17913,0.35826 -0.22687,0.45375 -1.59526,1.65779 -1.97045,1.97045 -0.85293,0.71078 0.24481,-0.70905 -0.89565,0.71653 -0.68559,0.85699 0.66126,-0.2525 -0.71653,0.89565 -1.03456,0.86213 -2.00522,1.8203 -3.04523,2.68698 -1.45786,1.21487 -2.88712,2.36023 -3.9409,3.94089 -0.24426,0.3664 -0.70077,0.68503 -0.89565,1.07479 -0.70671,1.41342 0.76096,2.20289 1.61218,3.22436 0.88002,1.05603 1.03244,2.62344 1.79131,3.76176 0.18887,0.28331 0.69052,0.86965 0.89566,1.07479 0.21939,0.21939 0.52588,0.25142 0.71653,0.5374 0.14979,0.22469 0.26436,0.58001 0.53739,0.71652 0.77554,0.38777 1.97154,-0.47853 2.50784,-0.89565 1.36501,-1.06167 2.82569,-2.24438 3.9409,-3.58263 0.50856,-0.61028 0.25032,-0.60859 0.89565,-1.25392 0.44238,-0.44239 1.02558,-0.74459 1.43306,-1.25392 0.55462,-0.69329 0.94445,-1.41669 1.43305,-2.14958 0.66645,-0.99969 0.0658,0.40585 0.71652,-0.89566 0.0844,-0.16889 0.082,-0.37548 0.17914,-0.53739 0.26052,-0.43421 0.65613,-0.77488 0.89565,-1.25392 0.21496,-0.42992 0.55923,-1.09662 0.89566,-1.43306 0.0422,-0.0422 0.13691,0.0422 0.17913,0 0.20185,-0.20184 -0.27486,-0.53739 0.17913,-0.53739 0.56252,0 1.11925,0.6218 1.61219,0.89566 0.39751,0.22084 0.85909,0.31178 1.25392,0.53739 0.62481,0.35704 1.16059,0.89351 1.79131,1.25392 0.23185,0.13249 0.49923,0.20305 0.71653,0.35827 0.20614,0.14724 0.31744,0.4117 0.53739,0.53739 0.21376,0.12215 0.49633,0.069 0.71653,0.17913 0.15105,0.0755 0.23884,0.23884 0.35826,0.35826 0.17913,0.11942 0.33951,0.27346 0.53739,0.35827 1.49125,0.37281 0.0169,-0.0811 1.25392,0.53739 0.94592,0.47296 2.08164,0.66182 3.04524,1.07479 0.19788,0.0848 0.33315,0.29018 0.53739,0.35826 0.16994,0.0566 0.36174,-0.0351 0.5374,0 0.30666,0.0613 0.98717,0.40402 1.25392,0.5374 0.19256,0.0963 0.33315,0.29018 0.53739,0.35826 0.16994,0.0566 0.36746,-0.0567 0.5374,0 0.31328,0.10443 0.73906,0.4031 1.07478,0.53739 0.43509,0.17404 0.86367,0.42225 0.89566,0.35827 0.1101,-0.2202 0.10128,-0.48297 0.17913,-0.71653 0.16601,-0.49803 0.66832,-0.79923 0.89566,-1.25392 0.28231,-0.56462 0.43281,-1.22387 0.71653,-1.79131 0.29283,-0.58567 1.60179,-2.15998 0.89565,-2.86611 -0.0944,-0.0944 -0.254,-0.0957 -0.35826,-0.17913 -0.5483,-0.43864 -0.44671,-0.61017 -1.07479,-0.89566 -1.04455,-0.47479 -2.32192,-0.86061 -3.40349,-1.25392 -0.23137,-0.0841 -0.49633,-0.069 -0.71653,-0.17913 -2.13363,-1.60022 0.57928,0.28964 -1.43305,-0.71652 -0.26704,-0.13352 -0.4495,-0.40388 -0.71653,-0.5374 -0.46845,-0.23422 -0.81373,-0.0942 -1.25392,-0.35826 -0.14482,-0.0869 -0.21344,-0.27137 -0.35826,-0.35826 -0.32383,-0.1943 -0.73702,-0.18938 -1.07479,-0.35827 -0.61032,-0.30516 -1.43671,-1.03275 -1.97045,-1.43305 -0.35258,-0.26444 -0.58212,-0.38063 -0.89565,-0.53739 -0.0317,-0.0159 -1.06137,-1.21366 -1.07479,-1.25392 -0.20467,-0.61401 0.66619,-1.56186 1.07479,-1.97045 0.57985,-0.57986 1.33907,-1.08604 1.97044,-1.61218 1.45507,-1.21256 2.61093,-2.79006 3.94089,-4.12003 0.21111,-0.21111 0.51681,-0.31548 0.71653,-0.53739 0.62073,-0.6897 1.22569,-1.57454 1.79132,-2.32871 0.35826,-0.47769 0.88596,-0.86659 1.07478,-1.43305 0.0566,-0.16994 -0.0434,-0.36361 0,-0.5374 0.041,-0.16384 0.28274,-0.2072 0.35827,-0.35826 0.0534,-0.10682 -0.0844,-0.27382 0,-0.35826 0.0597,-0.0597 0.23884,-0.11942 0.17913,-0.17914 -0.92565,-0.92564 -4.15274,-1.39014 -5.37395,-1.61218 -0.9154,-0.16644 -3.54736,-1.11005 -3.58263,-1.07479 -0.0944,0.0944 -0.0957,0.25401 -0.17913,0.35827 -0.59769,0.74711 -1.39857,1.38708 -1.97044,2.14957 -0.16022,0.21363 -0.21674,0.49009 -0.35826,0.71653 -0.3496,0.55936 -0.92219,1.0593 -1.25392,1.61218 -0.36836,0.61393 -0.3594,1.61332 -0.89566,2.14958 -0.0944,0.0944 -0.26385,0.0847 -0.35827,0.17913 -0.23471,0.23472 -0.51784,0.82644 -0.71652,1.07479 -0.31341,0.39176 -0.77391,0.67361 -1.07479,1.07479 -0.0801,0.10681 -0.0847,0.26385 -0.17913,0.35826 -0.0944,0.0944 -0.26385,0.0847 -0.35826,0.17914 -0.0681,0.0681 -0.13454,0.70518 -0.35827,0.53739 -0.40532,-0.304 -0.6625,-0.7803 -1.07479,-1.07479 -0.21729,-0.15521 -0.49008,-0.21674 -0.71652,-0.35826 -0.90053,-0.56283 -1.61663,-1.37631 -2.50784,-1.97045 -1.83346,-1.22231 -3.78103,-2.06964 -5.73221,-3.04523 -0.41577,-0.20789 -1.45658,-0.67251 -1.79131,-0.89566 -0.53692,-0.35794 -1.17543,-0.85083 -1.79132,-1.07479 -0.46274,-0.16827 -0.97588,-0.1754 -1.43305,-0.35826 -0.15681,-0.0627 -0.20146,-0.29554 -0.35827,-0.35827 -0.16631,-0.0665 -0.36174,0.0351 -0.53739,0 -0.26185,-0.0524 -0.45747,-0.29349 -0.71652,-0.35826 -0.11586,-0.029 -0.24241,0.029 -0.35827,0 -0.32422,0.10797 -0.33315,-0.29018 -0.53739,-0.35826 -0.34591,-0.11531 -3.53854,-0.25631 -3.58263,-0.17913 -0.22562,0.39482 -0.35827,0.83594 -0.5374,1.25392 z"
       id="path7-86" />
    <path
       style="fill:#9ff4f9;fill-opacity:1;stroke:#000000;stroke-width:0.264583"
       d="m 402.24274,68.430746 c -0.26266,0.558409 -0.76172,0.966965 -1.09139,1.464929 -0.45644,0.68943 -0.6306,1.568653 -1.07479,2.265856 -0.25385,0.398438 -0.72678,0.59392 -1.02293,0.902615 -0.0661,0.06897 -1.24032,2.011583 -1.23663,2.189086 0.002,0.09576 1.94091,2.484028 1.97538,2.523098 0.079,0.08954 0.22412,0.08763 0.3237,0.153543 0.64337,-0.04818 0.63079,0.60138 0.97939,0.861088 0.14364,0.107018 0.32369,0.153539 0.48553,0.230309 0.19021,0.156308 0.38573,0.306368 0.57063,0.468929 1.17959,1.037112 2.22076,2.287513 3.35523,3.375876 0.54029,0.518332 0.98107,1.256101 1.55831,1.730477 0.0923,0.07582 0.23143,0.07772 0.32369,0.153539 0.16634,0.136697 0.16568,0.41732 0.33201,0.554009 0.13839,0.113725 0.37511,0.08926 0.48554,0.230313 0.0823,0.105124 -0.0657,0.289313 0.008,0.400462 0.008,0.01134 0.95245,0.826687 0.97939,0.861087 0.0368,0.04701 -0.078,0.102151 -0.0768,0.161847 0.003,0.162798 0.19321,0.25569 0.008,0.400461 -0.39944,0.312733 -2.15181,0.814149 -2.62479,0.935843 -1.07525,0.276653 0.52505,-0.535718 -1.11632,0.263535 -0.98672,0.480475 0.70568,0.05526 -1.03123,0.502155 -1.30422,0.335563 -2.59187,0.785276 -3.90296,1.122608 -1.83784,0.472864 -3.62006,0.89516 -5.24957,1.871685 -0.37773,0.226358 -0.92675,0.318598 -1.26986,0.587228 -1.24427,0.974168 -0.25656,2.316461 0.0748,3.604178 0.34253,1.331282 -0.19151,2.812769 0.006,4.166488 0.0492,0.33691 0.25118,1.08166 0.34862,1.35493 0.10418,0.29224 0.36738,0.45254 0.41706,0.79262 0.0391,0.26721 -0.01,0.63735 0.17847,0.8777 0.53452,0.68273 1.98639,0.41259 2.64971,0.26556 1.68828,-0.37424 3.5149,-0.81682 5.09603,-1.548 0.72104,-0.33344 0.48699,-0.44258 1.34663,-0.74907 0.58929,-0.21012 1.24573,-0.23321 1.83217,-0.51877 0.79823,-0.38869 1.46047,-0.87522 2.21601,-1.328003 1.03059,-0.617601 -0.11448,0.394893 1.03125,-0.502151 0.14863,-0.116421 0.235,-0.30411 0.39215,-0.408772 0.42148,-0.280655 0.92492,-0.418909 1.34663,-0.749076 0.37847,-0.296308 0.97524,-0.75114 1.4234,-0.910923 0.0562,-0.02006 0.1056,0.09682 0.16185,0.07677 0.26887,-0.09586 -0.018,-0.603336 0.39215,-0.40877 0.50824,0.241079 0.74476,1.041474 1.07277,1.500165 0.26451,0.369899 0.64258,0.64988 0.90262,1.022931 0.41151,0.590367 0.66567,1.304689 1.08108,1.900629 0.1527,0.21907 0.36403,0.39742 0.49384,0.63078 0.12315,0.22138 0.11037,0.50803 0.25523,0.71585 0.14078,0.20197 0.41885,0.27508 0.57062,0.46893 0.10411,0.13298 0.11344,0.31816 0.17016,0.47723 0.11066,0.18467 0.18955,0.39258 0.33199,0.55401 1.18758,0.97594 0.05,-0.0661 0.90262,1.02293 0.65195,0.83271 1.59714,1.49008 2.29078,2.27618 0.14244,0.16143 0.17664,0.40496 0.33199,0.554 0.12927,0.12401 0.3419,0.12329 0.48555,0.23031 0.25079,0.18684 0.71877,0.78811 0.90262,1.02294 0.13271,0.16951 0.17664,0.40496 0.33199,0.554 0.12929,0.12397 0.35631,0.10626 0.48555,0.23032 0.23829,0.22861 0.49499,0.68094 0.74076,0.94615 0.31852,0.34371 0.59937,0.75165 0.6557,0.70755 0.19384,-0.15176 0.29849,-0.39296 0.46892,-0.57062 0.36344,-0.37883 0.94636,-0.43569 1.34663,-0.74907 0.49705,-0.38916 0.91556,-0.9203 1.4151,-1.31139 0.51557,-0.40366 2.37293,-1.26508 2.03755,-2.2057 -0.0448,-0.12576 -0.18847,-0.19535 -0.24692,-0.31539 -0.30741,-0.6313 -0.14211,-0.74274 -0.58723,-1.26986 -0.74028,-0.87665 -1.72904,-1.77268 -2.5377,-2.59156 -0.17298,-0.17518 -0.41885,-0.27508 -0.57062,-0.46893 -1.24194,-2.360223 0.39926,0.50995 -0.98769,-1.26155 -0.18405,-0.23508 -0.23304,-0.55754 -0.41708,-0.792619 -0.32287,-0.412388 -0.69486,-0.433805 -0.97939,-0.861087 -0.0936,-0.140571 -0.0765,-0.336659 -0.17015,-0.477232 -0.20931,-0.314332 -0.58474,-0.486969 -0.81754,-0.784317 -0.42064,-0.537279 -0.85547,-1.548827 -1.16615,-2.139249 -0.20523,-0.390026 -0.36283,-0.593382 -0.57893,-0.869392 -0.0219,-0.02791 -0.43881,-1.551414 -0.43369,-1.593551 0.0782,-0.642473 1.27128,-1.125634 1.81556,-1.319695 0.77241,-0.275397 1.67531,-0.407358 2.47125,-0.612147 1.83433,-0.471957 3.55473,-1.401875 5.32634,-2.033531 0.28122,-0.100264 0.60215,-0.06355 0.8777,-0.17846 0.85642,-0.357123 1.78223,-0.897317 2.61649,-1.336304 0.52841,-0.278052 1.17187,-0.403275 1.58524,-0.834157 0.12397,-0.129285 0.11662,-0.347126 0.23031,-0.485541 0.10726,-0.130463 0.34426,-0.06604 0.47724,-0.17015 0.094,-0.07362 0.0411,-0.28357 0.15354,-0.323694 0.0795,-0.02836 0.26697,-0.0055 0.23861,-0.08508 -0.43962,-1.233036 -3.15626,-3.035745 -4.16448,-3.759732 -0.75574,-0.542692 -2.72933,-2.52323 -2.77631,-2.506486 -0.12575,0.04484 -0.19533,0.188479 -0.31539,0.246922 -0.86021,0.418876 -1.85809,0.653859 -2.70156,1.097689 -0.23631,0.124353 -0.40585,0.34991 -0.63077,0.493848 -0.55559,0.355555 -1.28719,0.561862 -1.82386,0.91923 -0.59592,0.396824 -1.01614,1.303622 -1.73048,1.558311 -0.12576,0.04484 -0.2747,-0.03653 -0.40046,0.0083 -0.31267,0.111476 -0.82206,0.524766 -1.10802,0.663998 -0.45105,0.219646 -0.98791,0.276944 -1.43169,0.510465 -0.11815,0.06218 -0.18961,0.202094 -0.31539,0.246923 -0.12575,0.04484 -0.27471,-0.03654 -0.40047,0.0083 -0.0907,0.03237 -0.42378,0.579482 -0.554,0.331999 -0.23594,-0.448374 -0.26416,-0.988933 -0.51046,-1.431701 -0.12981,-0.233362 -0.34991,-0.405857 -0.49385,-0.630779 -0.57242,-0.894454 -0.87079,-1.936334 -1.42138,-2.855097 -1.13271,-1.89013 -2.5292,-3.490372 -3.87401,-5.208048 -0.28655,-0.366008 -1.02781,-1.231852 -1.23462,-1.576933 -0.3317,-0.553507 -0.69737,-1.272488 -1.15784,-1.738784 -0.34597,-0.35035 -0.80655,-0.576708 -1.14123,-0.937854 -0.1148,-0.123872 -0.0554,-0.353362 -0.17016,-0.477239 -0.12176,-0.13139 -0.34189,-0.12329 -0.48554,-0.230308 -0.21414,-0.159538 -0.28754,-0.461235 -0.49385,-0.630776 -0.0923,-0.07581 -0.23143,-0.07772 -0.32369,-0.15354 -0.3392,-0.0414 -0.17664,-0.404961 -0.332,-0.554008 -0.26312,-0.252423 -3.08725,-1.748077 -3.16017,-1.697252 -0.37305,0.26004 -0.68195,0.601746 -1.02293,0.90262 z"
       id="path7-8"
       inkscape:transform-center-x="-6.5868215"
       inkscape:transform-center-y="-7.5997533" />
    <path
       style="fill:#f5f99f;fill-opacity:1;stroke:#000000;stroke-width:0.264583"
       d="m 29.562128,76.176527 c 0.41098,0.622332 0.0462,1.485133 0.17913,2.149578 0.0132,0.06614 0.33349,0.771808 0.35826,0.895657 0.17225,0.861235 0.17913,1.806019 0.17913,2.686973 0,0.366752 -0.15319,1.305798 0,1.612183 0.19384,0.387678 0.21748,0.831578 0.35826,1.253921 0.0267,0.08011 0.15866,0.09721 0.17913,0.179131 0.15102,0.60406 -0.1965,1.38093 0,1.970448 0.0267,0.08011 0.15243,0.09902 0.17914,0.179131 0.0269,0.08068 0.0985,1.155422 0,1.253921 -0.1207,0.120695 -1.78874,0.153172 -1.97045,0.179131 -0.18692,0.0267 -0.35826,0.119419 -0.53739,0.17913 -0.23885,0.05971 -0.47224,0.148596 -0.71653,0.179131 -1.39489,0.174361 -2.90431,-0.08718 -4.29915,0 -0.96227,0.06014 -1.77361,0.354722 -2.68698,0.537396 -0.2342,0.04684 -0.48994,-0.07553 -0.71652,0 -0.0801,0.0267 -0.099,0.152429 -0.17913,0.17913 -0.0804,0.02682 -1.21984,0.352584 -1.25393,0.358265 -0.82386,0.137311 -2.00772,-0.06731 -2.32871,0.895657 -0.0818,0.245509 0.10085,2.272995 0.17914,2.507839 0.0844,0.253331 0.27382,0.463196 0.35826,0.716527 0.0925,0.277481 0.0696,2.040008 0.17913,2.149578 0.0422,0.04222 0.13691,-0.04222 0.17913,0 0.0845,0.08444 -0.0844,0.27382 0,0.358264 0.0845,0.08444 0.27382,-0.08444 0.35827,0 0.11666,0.116663 0.13594,0.568314 0.35826,0.716526 0.0994,0.06624 0.24241,-0.02896 0.35826,0 1.28307,0.320765 2.295,0.05037 3.58263,0.179131 1.79914,0.179914 3.58977,0.297363 5.37395,0 0.48486,0.304445 0.46319,-0.27382 0.71652,-0.358264 0.68407,-0.228024 2.76402,0.03403 3.4035,-0.179131 0.088,-0.02934 0.36379,-0.352737 0.53739,-0.179131 0.20475,0.204742 0,1.479134 0,1.791314 0,1.367522 -0.088,2.784517 0.17914,4.120027 0.0801,0.40041 0.46804,1.12674 0.53739,1.61218 0.10316,0.72211 0.0538,1.36155 0.35826,1.97045 0.28661,0.57322 -0.28661,1.57635 0,2.14958 0.0267,0.0534 0.13691,-0.0422 0.17913,0 0.25714,0.25714 -0.30725,0.11507 0.17914,0.35826 0.15105,0.0755 0.19442,0.3173 0.35826,0.35827 0.34757,0.0869 0.7214,-0.0589 1.07479,0 0.18625,0.031 0.35047,0.15242 0.53739,0.17913 0.47289,0.0676 0.96017,-0.0676 1.43305,0 0.18693,0.0267 0.34973,0.15828 0.5374,0.17913 0.39633,0.044 4.24174,0.11827 4.47829,0 0.10924,-0.0546 0.47821,-0.2399 0.53739,-0.35826 0.0267,-0.0534 -0.0422,-0.13691 0,-0.17914 0.0422,-0.0422 0.13691,0.0422 0.17913,0 0.12118,-0.12117 0.17913,-1.41769 0.17913,-1.61218 0,-1.9026 -0.80894,-3.59404 -1.25392,-5.37395 -0.0648,-0.25906 -0.27382,-0.46319 -0.35826,-0.71652 -0.1957,-0.58712 -0.35826,-1.344365 -0.35826,-1.970451 0,-0.988282 -0.5374,-1.874809 -0.5374,-2.866104 0,-0.0921 -0.34459,-0.633799 -0.17913,-0.716526 0.31054,-0.155266 3.38613,-0.469096 3.76176,-0.537393 0.54409,-0.09892 1.06715,-0.267425 1.61219,-0.358264 0.92685,-0.154475 0.16671,0.255751 1.25391,-0.179131 0.6323,-0.252918 1.31277,-0.497301 1.97045,-0.716526 0.35122,-0.117073 1.7341,-0.301046 1.97045,-0.537396 0.0844,-0.08444 -0.0534,-0.251449 0,-0.358261 0.70856,-1.417127 -0.5374,-3.002463 -0.5374,-4.478287 0,-0.269518 -0.55964,-2.530094 -0.71652,-2.686974 -0.0422,-0.04222 -0.13691,0.04222 -0.17913,0 -0.0422,-0.04222 0.0422,-0.136908 0,-0.179131 -0.12483,-0.124827 -3.95411,0.131726 -4.12003,0.179131 -0.207,0.05915 -0.33039,0.29912 -0.53739,0.358265 -0.22965,0.06561 -0.47953,-0.02963 -0.71653,0 -0.88031,0.110037 -1.84822,0.148574 -2.68697,0.358261 -1.16948,0.29237 0.67679,0.09619 -0.89566,0.358265 -0.29449,0.04908 -0.60602,-0.07241 -0.89566,0 -0.18318,0.04579 -0.40387,0.312647 -0.53739,0.179131 -0.30231,-0.302311 -0.0902,-1.077326 -0.17913,-1.433053 -0.0744,-0.297452 -0.2772,-0.473331 -0.35826,-0.716526 -0.0378,-0.113292 0.0378,-0.244969 0,-0.358261 -0.0267,-0.08011 -0.15243,-0.09902 -0.17914,-0.179134 -0.0378,-0.113292 0.0234,-0.24116 0,-0.358262 -0.0597,-0.17913 -0.11942,-0.358264 -0.17913,-0.537395 -0.0597,-0.05971 -0.15243,-0.09902 -0.17913,-0.179131 -0.16364,-0.490934 -0.23273,-1.110051 -0.35826,-1.612183 -0.15485,-0.619402 -0.42657,-1.126365 -0.5374,-1.791316 -0.0463,-0.27758 0.0682,-0.622837 0,-0.895657 -0.12436,-0.497472 -0.73519,-3.601294 -0.89565,-3.761761 -0.15636,-0.156356 -1.21149,0 -1.43306,0 -0.63526,0 -2.60571,-0.21976 -3.04523,0 -0.6008,0.300403 -0.96991,0.484955 -1.79131,0.895657 z"
       id="path9" />
    <path
       style="fill:#f5f99f;fill-opacity:1;stroke:#000000;stroke-width:0.264583"
       d="m 50.192657,155.76606 c 0.743386,0.0598 1.198126,0.87878 1.803346,1.18353 0.06019,0.0303 0.813362,0.21295 0.926168,0.26976 0.784429,0.39504 1.532765,0.97181 2.226582,1.51467 0.288845,0.22599 0.934023,0.9253 1.269719,0.99345 0.424775,0.0862 0.788949,0.34114 1.208325,0.49052 0.07954,0.0283 0.174321,-0.0651 0.251462,-0.0307 0.568805,0.25329 0.966505,1.00571 1.551884,1.21422 0.07954,0.0283 0.1719,-0.059 0.251468,-0.0307 0.08013,0.0285 0.970689,0.63441 0.98756,0.77268 0.02068,0.16944 -0.981605,1.50317 -1.073132,1.66228 -0.09416,0.16366 -0.12672,0.35574 -0.190069,0.53361 -0.100164,0.22491 -0.173974,0.46349 -0.300457,0.67471 -0.722228,1.20603 -1.858353,2.23364 -2.649197,3.38592 -0.545631,0.7949 -0.813553,1.61544 -1.232518,2.44735 -0.107459,0.21329 -0.36137,0.33935 -0.44153,0.56432 -0.02833,0.0795 0.05905,0.1719 0.0307,0.25146 -0.02844,0.0798 -0.473991,1.17799 -0.490524,1.20834 -0.399532,0.73347 -1.290189,1.53977 -0.729589,2.38596 0.142952,0.21571 1.852311,1.32122 2.08551,1.40428 0.251525,0.0896 0.533538,0.0698 0.785088,0.15937 0.275537,0.0981 1.649557,1.20227 1.803346,1.18353 0.05924,-0.007 0.05113,-0.13384 0.110382,-0.14108 0.118542,-0.0145 0.163647,0.2352 0.282158,0.22076 0.118542,-0.0145 0.10226,-0.26766 0.220771,-0.28216 0.163775,-0.02 0.531365,0.24314 0.785089,0.15937 0.113389,-0.0375 0.126537,-0.20878 0.220765,-0.28215 1.043269,-0.81286 1.453905,-1.77644 2.348746,-2.71122 1.250349,-1.3061 2.446262,-2.64399 3.311504,-4.23241 0.538548,-0.19427 0.06977,-0.53353 0.159372,-0.78508 0.241942,-0.67928 1.730006,-2.15593 1.956198,-2.79092 0.03115,-0.0874 -0.05363,-0.50387 0.190069,-0.53361 0.287426,-0.0351 1.164939,0.91146 1.410805,1.10383 1.077029,0.84269 2.138794,1.78516 3.355228,2.39773 0.364713,0.18365 1.175809,0.3257 1.600866,0.57021 0.632287,0.36373 1.105484,0.79664 1.772654,0.93206 0.62806,0.1275 1.06488,1.1971 1.69296,1.3246 0.0585,0.0119 0.0511,-0.13383 0.11038,-0.14107 0.36097,-0.0441 -0.0987,0.31289 0.39255,0.0797 0.15254,-0.0724 0.3697,0.0424 0.50293,-0.0614 0.28262,-0.22019 0.39815,-0.60446 0.6623,-0.84648 0.13918,-0.12759 0.33601,-0.1821 0.47223,-0.31286 0.34464,-0.33078 0.53843,-0.79786 0.88306,-1.12864 0.13622,-0.13077 0.34017,-0.1779 0.47223,-0.31286 0.27888,-0.28503 2.70697,-3.26783 2.75959,-3.52701 0.0243,-0.11968 0.10574,-0.52445 0.049,-0.644 -0.0256,-0.0539 -0.13383,-0.0511 -0.14109,-0.11039 -0.007,-0.0592 0.1176,-0.0818 0.11038,-0.14108 -0.0208,-0.1701 -1.00616,-1.01468 -1.15933,-1.13452 -1.49845,-1.17241 -3.32907,-1.5776 -5.00509,-2.32395 -0.24396,-0.1086 -0.53353,-0.0698 -0.78508,-0.15937 -0.583,-0.20766 -1.27956,-0.54625 -1.77265,-0.93206 -0.778351,-0.60899 -1.807717,-0.73204 -2.588436,-1.34289 -0.07254,-0.0567 -0.711508,-0.11916 -0.674706,-0.30045 0.06908,-0.34025 1.717136,-2.95591 1.894813,-3.29383 0.257385,-0.48946 0.446979,-1.00526 0.711296,-1.49049 0.449473,-0.82516 0.304153,0.0263 0.631603,-1.09794 0.19043,-0.65384 0.41727,-1.34036 0.64989,-1.99342 0.12423,-0.34875 0.83148,-1.55125 0.79098,-1.88304 -0.0145,-0.11848 -0.23095,-0.11289 -0.28216,-0.22076 -0.67947,-1.4313 -2.695829,-1.42692 -3.858153,-2.33634 -0.212269,-0.16608 -2.337511,-1.11832 -2.557738,-1.09144 -0.05924,0.007 -0.05113,0.13384 -0.110383,0.14108 -0.05924,0.007 -0.08182,-0.1176 -0.141079,-0.11038 -0.175235,0.0214 -2.332831,3.19535 -2.397742,3.35523 -0.08101,0.19945 0.03199,0.44453 -0.04898,0.64401 -0.08985,0.22129 -0.318806,0.35943 -0.441536,0.56432 -0.455802,0.76112 -1.021889,1.54717 -1.373591,2.33697 -0.490386,1.10122 0.492813,-0.47375 -0.269761,0.92616 -0.142798,0.26219 -0.430458,0.43268 -0.551918,0.70541 -0.07681,0.17249 -0.0026,0.51074 -0.190068,0.53362 -0.424381,0.0518 -0.904057,-0.59282 -1.239022,-0.74199 -0.280112,-0.1247 -0.543599,-0.0734 -0.785089,-0.15938 -0.112518,-0.04 -0.169632,-0.18072 -0.282158,-0.22076 -0.07954,-0.0283 -0.1719,0.059 -0.251467,0.0307 -0.112518,-0.04 -0.175513,-0.16703 -0.282158,-0.22076 -0.177867,-0.0634 -0.355754,-0.12672 -0.533628,-0.19008 -0.08381,0.0102 -0.171899,0.0591 -0.251461,0.0307 -0.487483,-0.17364 -1.017663,-0.50074 -1.490483,-0.71129 -0.583247,-0.25973 -1.149964,-0.35813 -1.741959,-0.68059 -0.247147,-0.13459 -0.448502,-0.43751 -0.705395,-0.55192 -0.468437,-0.20861 -3.289341,-1.64015 -3.514602,-1.61266 -0.219489,0.0268 -0.746537,0.95415 -0.883072,1.12865 -0.391456,0.50032 -1.778753,1.91678 -1.876514,2.39836 -0.133625,0.65829 -0.215728,1.06272 -0.398428,1.96271 z"
       id="path9-7" />
    <path
       style="fill:#f5f99f;fill-opacity:1;stroke:#000000;stroke-width:0.264583"
       d="m 460.51344,119.71067 c 0.16192,0.728 -0.48667,1.40389 -0.59953,2.07204 -0.0113,0.0665 0.0362,0.84 0.0152,0.96453 -0.14634,0.86601 -0.47697,1.75108 -0.79126,2.57407 -0.13084,0.34262 -0.60896,1.16522 -0.57515,1.50609 0.0428,0.43133 -0.0935,0.85445 -0.11266,1.29923 -0.004,0.0844 0.11354,0.1474 0.10343,0.23124 -0.0744,0.61819 -0.67622,1.21996 -0.70297,1.84079 -0.004,0.0844 0.10708,0.14687 0.10345,0.23126 -0.004,0.085 -0.32019,1.11453 -0.44734,1.1714 -0.15582,0.0697 -1.72569,-0.49505 -1.9047,-0.53562 -0.18415,-0.0418 -0.37729,-0.0163 -0.56593,-0.0244 -0.24444,-0.0294 -0.49418,-0.0297 -0.73329,-0.0883 -1.36531,-0.33474 -2.68209,-1.1176 -4.01625,-1.53375 -0.9204,-0.28715 -1.78346,-0.30136 -2.7019,-0.45656 -0.23548,-0.0398 -0.43076,-0.24532 -0.66937,-0.25563 -0.0844,-0.004 -0.14686,0.10708 -0.23125,0.10344 -0.0847,-0.004 -1.26535,-0.10581 -1.29923,-0.11265 -0.81863,-0.16565 -1.8516,-0.77914 -2.495,0.006 -0.16401,0.20017 -0.7167,2.15941 -0.72734,2.40673 -0.0115,0.26677 0.0905,0.5304 0.0791,0.79719 -0.0126,0.29222 -0.66277,1.9306 -0.59953,2.07204 0.0244,0.0545 0.14295,0.009 0.16734,0.0639 0.0488,0.10899 -0.17653,0.22569 -0.12781,0.33469 0.0488,0.10899 0.28591,0.0188 0.33469,0.12781 0.0674,0.1506 -0.0758,0.57941 0.0791,0.79719 0.0692,0.0973 0.23681,0.0594 0.33469,0.12782 1.0842,0.75739 2.126,0.86584 3.28297,1.44547 1.61657,0.80992 3.24747,1.55846 5.02033,1.91719 0.34435,0.45738 0.5304,-0.0906 0.79719,-0.0791 0.7204,0.031 2.57001,1.01784 3.24345,1.04687 0.0927,0.004 0.46569,-0.19973 0.56593,0.0244 0.11824,0.26431 -0.52769,1.38181 -0.63906,1.67345 -0.48788,1.27753 -1.07561,2.56988 -1.3025,3.91282 -0.068,0.40263 0.0353,1.21957 -0.0731,1.69781 -0.16125,0.71139 -0.43549,1.29115 -0.36829,1.9686 0.0632,0.63775 -0.83012,1.37037 -0.76688,2.00813 0.006,0.0594 0.14296,0.009 0.16735,0.0639 0.14848,0.33195 -0.32809,-0.002 0.0395,0.39859 0.11417,0.12442 0.0684,0.36578 0.20687,0.46251 0.29369,0.20518 0.69494,0.20234 1.00406,0.38344 0.16294,0.0954 0.27303,0.26742 0.43813,0.35906 0.41765,0.23186 0.9211,0.27939 1.33875,0.51125 0.1651,0.0916 0.27025,0.27263 0.43813,0.35906 0.35455,0.1825 3.92043,1.62376 4.18361,1.59766 0.12153,-0.012 0.53232,-0.0535 0.62984,-0.14297 0.044,-0.0404 0.009,-0.14295 0.0639,-0.16735 0.0545,-0.0244 0.11284,0.0883 0.16734,0.0639 0.15643,-0.07 0.67311,-1.2605 0.7425,-1.44219 0.67876,-1.77741 0.52648,-3.64614 0.74578,-5.46768 0.0319,-0.26513 -0.0906,-0.53039 -0.0791,-0.79718 0.0266,-0.6183 0.14492,-1.38371 0.36828,-1.9686 0.35258,-0.92325 0.16682,-1.94316 0.52047,-2.86922 0.0328,-0.086 -0.0958,-0.71503 0.0883,-0.73329 0.3455,-0.0343 3.33066,0.7698 3.70594,0.84 0.54357,0.10172 1.09234,0.13088 1.63392,0.24047 0.92097,0.18635 0.0645,0.2984 1.23531,0.28 0.68092,-0.0107 1.4038,0.004 2.09641,0.0336 0.36988,0.0159 1.72739,0.33741 2.03251,0.20093 0.10896,-0.0487 0.0398,-0.25396 0.12781,-0.33469 1.16751,-1.07109 0.56911,-2.99661 1.09562,-4.37532 0.0962,-0.25178 0.37982,-2.56326 0.28923,-2.76579 -0.0244,-0.0545 -0.14296,-0.009 -0.16735,-0.0639 -0.0244,-0.0545 0.0883,-0.11285 0.0639,-0.16735 -0.0721,-0.16115 -3.74091,-1.2876 -3.91283,-1.3025 -0.2145,-0.0185 -0.41536,0.16157 -0.62984,0.14297 -0.23794,-0.0207 -0.43741,-0.19873 -0.66938,-0.25563 -0.86164,-0.21126 -1.77961,-0.52056 -2.63797,-0.6239 -1.19683,-0.14409 0.59793,0.33132 -0.96454,0.0152 -0.29263,-0.0592 -0.54031,-0.28383 -0.83672,-0.31953 -0.18747,-0.0226 -0.48884,0.14799 -0.56594,-0.0244 -0.17456,-0.39027 0.30008,-1.03861 0.34391,-1.40266 0.0366,-0.30442 -0.0901,-0.54108 -0.0791,-0.79719 0.005,-0.11932 0.12271,-0.21537 0.12782,-0.33469 0.004,-0.0844 -0.10709,-0.14686 -0.10345,-0.23125 0.005,-0.11932 0.10789,-0.21694 0.12781,-0.33469 0.008,-0.18864 0.0163,-0.3773 0.0244,-0.56594 -0.0345,-0.0771 -0.10708,-0.14687 -0.10344,-0.23125 0.0223,-0.517 0.1786,-1.12003 0.24047,-1.6339 0.0763,-0.6339 0.003,-1.20444 0.13703,-1.86517 0.0558,-0.27583 0.28591,-0.55753 0.31953,-0.83672 0.0613,-0.50911 0.59797,-3.6266 0.50532,-3.83376 -0.0903,-0.20184 -1.13177,-0.43221 -1.33876,-0.51125 -0.59346,-0.22664 -2.35585,-1.13491 -2.84485,-1.08641 -0.66843,0.0663 -1.0791,0.10703 -1.99297,0.19766 z"
       id="path9-2" />
    <path
       style="fill:#f99f9f;fill-opacity:1;stroke:#000000;stroke-width:0.264583"
       d="m 422.89376,221.23403 c -0.77392,1.79178 -1.27982,3.98364 -2.51109,5.49642 -0.20457,0.25135 -0.24476,1.09699 -0.31206,1.39866 -0.039,0.17484 -0.16032,0.35068 -0.11703,0.5245 0.008,0.031 3.38843,0.75601 3.67149,0.81917 2.27282,0.50711 4.54565,1.01421 6.81847,1.52132 0.77228,0.1723 1.6567,0.50306 2.44766,0.54611 0.13332,0.007 0.25538,-0.089 0.38867,-0.0968 0.7115,-0.0419 1.45565,0.0853 2.137,0.29326 3.98959,1.21794 8.12353,1.99603 12.19927,2.9054 1.613,0.35989 -0.20831,-0.10583 1.35966,0.4869 0.56842,0.21487 1.40492,0.11755 1.92316,0.42909 0.1579,0.0949 0.0604,0.31518 0.31065,0.25285 0.32009,-0.0797 0.7,-1.49342 0.70075,-1.49548 0.58438,-1.6319 0.31751,-2.89127 0.27587,-4.52685 -0.0183,-0.71869 0.78004,-2.17141 0.62412,-2.79732 -0.0353,-0.14176 -2.17316,-0.31234 -2.31183,-0.33227 -0.94564,-0.13592 -1.85372,-0.47466 -2.79732,-0.62413 -0.47548,-0.0753 -0.96189,-0.0639 -1.43767,-0.13724 -2.16595,-0.33389 -4.32779,-0.9656 -6.46881,-1.4433 -2.16347,-0.4827 -4.26511,-1.13515 -6.42979,-1.61813 -1.28219,-0.28607 -3.75882,-1.06708 -4.89533,-1.09222 -0.13348,-0.003 -0.25519,0.0934 -0.38867,0.0968 -0.34745,0.009 -0.70154,-0.2429 -1.04899,-0.23405 -0.13348,0.003 -0.25912,0.0645 -0.38867,0.0968 -0.24611,0.006 -0.49222,0.0242 -0.73835,0.0188 -0.34741,-0.008 -0.70189,-0.24289 -1.04899,-0.23405 -0.83118,0.0212 -0.91474,-0.0206 -1.96217,-0.25426 z"
       id="path10" />
    <path
       style="fill:#f99f9f;fill-opacity:1;stroke:#000000;stroke-width:0.264583"
       d="m 58.673565,202.97207 c 0.144663,1.9464 0.712264,4.12311 0.322358,6.03427 -0.06478,0.31753 0.291547,1.08549 0.371723,1.384 0.04647,0.17299 0.02048,0.38503 0.139395,0.51899 0.0212,0.0238 3.352909,-0.90054 3.633002,-0.97577 2.249003,-0.60405 4.498005,-1.2081 6.747008,-1.81215 0.764187,-0.20525 1.701177,-0.32207 2.422002,-0.65052 0.121485,-0.0554 0.185061,-0.1972 0.299532,-0.26593 0.611064,-0.36686 1.329388,-0.59911 2.029539,-0.73058 4.099701,-0.76985 8.123448,-1.99636 12.156473,-3.07958 1.596092,-0.42869 -0.233631,0.003 1.430464,-0.19872 0.603261,-0.0731 1.299402,-0.54699 1.903005,-0.51112 0.183921,0.011 0.199633,0.25128 0.392466,0.0801 0.246675,-0.21901 -0.07189,-1.64777 -0.07218,-1.64994 -0.238521,-1.71689 -1.058688,-2.70915 -1.853637,-4.13914 -0.349318,-0.62836 -0.315198,-2.28564 -0.743448,-2.76801 -0.09696,-0.10926 -2.070425,0.73045 -2.202538,0.77705 -0.900933,0.31788 -1.862595,0.43856 -2.767999,0.74345 -0.456243,0.1536 -0.881951,0.3892 -1.337544,0.54472 -2.07402,0.708 -4.282426,1.1502 -6.401001,1.71922 -2.140798,0.57499 -4.305471,0.97091 -6.447466,1.54622 -1.268745,0.34077 -3.825286,0.79658 -4.844013,1.30103 -0.119643,0.0593 -0.182835,0.20106 -0.299533,0.26593 -0.303781,0.16888 -0.73422,0.10991 -1.038002,0.27879 -0.116692,0.0649 -0.199685,0.1773 -0.299532,0.26593 -0.215179,0.11961 -0.424916,0.24962 -0.645537,0.35887 -0.311396,0.15426 -0.734523,0.1101 -1.038002,0.2788 -0.726704,0.40398 -0.820084,0.40574 -1.856531,0.68411 z"
       id="path10-5" />
    <path
       style="fill:#f99f9f;fill-opacity:1;stroke:#000000;stroke-width:0.264583"
       d="m 428.89121,46.141183 c 0.79837,1.781014 2.0728,3.634675 2.35649,5.564462 0.0471,0.320625 0.64353,0.921501 0.8205,1.174908 0.10257,0.146854 0.15028,0.3551 0.30768,0.440598 0.0281,0.01519 2.84638,-1.987754 3.08416,-2.153801 1.90924,-1.333308 3.81847,-2.666609 5.72771,-3.999918 0.64874,-0.453038 1.49006,-0.881739 2.0561,-1.43587 0.0954,-0.0934 0.10691,-0.248409 0.19116,-0.351989 0.44975,-0.552901 1.04618,-1.015724 1.65981,-1.377603 3.59307,-2.118984 6.95932,-4.641521 10.38306,-7.032468 1.35497,-0.946232 -0.21875,0.08211 1.27748,-0.673628 0.54241,-0.273973 1.03572,-0.956513 1.61551,-1.128188 0.17666,-0.05231 0.27324,0.168306 0.39629,-0.05826 0.15744,-0.289867 -0.62831,-1.524964 -0.62932,-1.526909 -0.80852,-1.533251 -1.9174,-2.187204 -3.15151,-3.261355 -0.54229,-0.471994 -1.07416,-2.041986 -1.64099,-2.349834 -0.1285,-0.06947 -1.69831,1.39139 -1.80668,1.480172 -0.73901,0.605454 -1.6022,1.046201 -2.34983,1.640991 -0.37672,0.299714 -0.69687,0.666089 -1.07236,0.967361 -1.70932,1.37151 -3.63546,2.538806 -5.43398,3.794791 -1.81737,1.269151 -3.71814,2.378054 -5.53653,3.647919 -1.07707,0.752171 -3.32594,2.050723 -4.11221,2.871738 -0.0923,0.09643 -0.10351,0.251282 -0.19116,0.351989 -0.22819,0.262173 -0.653,0.353203 -0.88119,0.615378 -0.0877,0.100703 -0.12741,0.234675 -0.19115,0.351989 -0.16163,0.185702 -0.31462,0.379306 -0.4849,0.557113 -0.24035,0.25097 -0.65323,0.353469 -0.88119,0.61537 -0.54586,0.627167 -0.63307,0.660593 -1.51294,1.275045 z"
       id="path10-1" />
    <path
       style="fill:#f99ff4;fill-opacity:1;stroke:#000000;stroke-width:0.264583"
       d="m 89.367147,121.70706 c -1.25526,-0.37602 -2.43647,-0.83177 -3.7011,-1.14848 -1.66215,-0.41626 -3.07668,-1.14477 -4.65667,-1.75713 -0.55984,-0.21739 -1.20407,-0.19352 -1.73766,-0.43516 -0.86742,-0.39281 -1.62882,-1.0602 -2.52796,-1.40869 -0.15734,-0.0614 -0.34521,0.005 -0.50394,-0.0523 -0.4934,-0.17925 -1.18811,-1.02919 -1.52008,-1.30401 -1.84993,-1.53147 -4.08727,-3.35805 -4.88095,-5.72815 -1.00898,-3.01305 0.48762,1.11297 -0.23402,-1.42512 -0.19556,-0.68778 -0.45225,-1.10867 -0.57272,-1.84233 -0.20802,-1.26677 0.003,-0.0281 0.13085,-1.25988 0.0308,-0.29696 -0.0652,-0.59804 -0.0344,-0.89499 0.17982,-1.73141 0.79373,-3.64384 2.14816,-4.743391 0.23179,-0.18818 0.4039,-0.49988 0.69538,-0.56452 0.3644,-0.0808 0.83193,0.34128 1.09461,0.49575 1.70113,0.997011 2.21409,1.874691 3.46557,3.416281 0.59014,0.72693 1.30002,1.43725 1.80643,2.22516 0.41348,0.64339 0.6429,1.07614 1.10285,1.6427 0.0376,0.0463 -0.10445,-0.08 -0.1129,-0.13908 -0.0421,-0.29557 -0.0296,-0.59648 -0.0344,-0.895 -0.0122,-0.76457 -0.0369,-1.52955 -0.0164,-2.29394 0.0286,-1.07192 0.27839,-2.07935 0.20113,-3.16278 -0.15849,-2.223051 -0.87057,-4.537991 0.42849,-6.577511 0.0469,-0.0743 1.10837,-1.79508 1.58213,-1.74587 0.88893,0.0923 2.21226,1.55406 2.56235,2.30368 0.11297,0.24198 0.0942,0.5271 0.17347,0.7821 0.1121,0.36061 0.29232,0.69805 0.39927,1.06023 0.22686,0.76831 0.29352,1.57799 0.52038,2.34628 0.26949,0.91268 0.72738,2.064831 0.83292,3.015491 0.16308,1.46901 0.0331,3.00104 0.17196,4.47498 0.0762,0.8091 0.44574,1.48175 0.65945,2.23339 0.37335,1.31312 -0.15014,0.035 0.008,1.14697 0.13297,0.93347 0.61192,2.14814 0.83292,3.01548 0.54668,2.14544 -0.10097,-0.54226 0.0949,1.53801 0.0177,0.18799 0.15875,0.34579 0.19964,0.53013 0.17449,0.78666 0.37936,1.32563 0.68564,1.9814 0.1715,0.36722 -0.0402,0.55885 0.0344,0.89501 0.0258,0.11655 0.19991,0.16159 0.22579,0.27815 0.0549,0.24731 -0.1023,0.50369 -0.0785,0.75591 0.0113,0.11892 0.19993,0.1616 0.22581,0.27815 0.40594,1.83025 0.80425,0.35522 0.32896,2.96313 z"
       id="path11" />
    <path
       style="fill:#f99ff4;fill-opacity:1;stroke:#000000;stroke-width:0.264583"
       d="m 420.30408,274.04089 c -0.0731,-1.30833 -0.046,-2.57412 -0.17806,-3.8711 -0.17356,-1.70467 0.0307,-3.28261 0.0695,-4.97667 0.0141,-0.6004 -0.22732,-1.19815 -0.18146,-1.78211 0.0746,-0.94929 0.44337,-1.89222 0.46545,-2.85628 0.004,-0.16884 -0.12205,-0.32295 -0.12212,-0.49171 8.5e-4,-0.52495 0.56401,-1.46722 0.70962,-1.87284 0.8114,-2.26037 1.76865,-4.98539 3.7278,-6.53749 2.49063,-1.97315 -0.88093,0.83692 1.2607,-0.70454 0.58034,-0.41772 0.88891,-0.8022 1.53793,-1.16489 1.12061,-0.62626 0.0274,-0.007 1.22933,-0.30523 0.28974,-0.072 0.54026,-0.26461 0.83,-0.33659 1.68942,-0.41946 3.69666,-0.49222 5.19115,0.40777 0.25577,0.15402 0.60741,0.20992 0.76729,0.46207 0.19986,0.31523 -0.0382,0.8984 -0.0941,1.19795 -0.35936,1.93874 -1.0104,2.71951 -2.03475,4.42051 -0.48303,0.80211 -0.90974,1.71118 -1.47858,2.45527 -0.46451,0.60757 -0.7935,0.97043 -1.16997,1.59559 -0.0308,0.0511 0.0397,-0.12543 0.0924,-0.15346 0.26366,-0.14007 0.5509,-0.2306 0.83001,-0.33659 0.71489,-0.27138 1.42592,-0.55466 2.15175,-0.79522 1.01781,-0.33749 2.05016,-0.44504 3.0428,-0.886 2.03679,-0.90475 3.97181,-2.36137 6.33147,-1.83298 0.0858,0.0188 2.06495,0.43215 2.17972,0.89442 0.21538,0.86737 -0.70948,2.6088 -1.29544,3.19287 -0.18917,0.1885 -0.46369,0.26777 -0.67656,0.429 -0.30103,0.22801 -0.55711,0.51221 -0.86136,0.73591 -0.64544,0.47453 -1.38424,0.81246 -2.02966,1.28698 -0.76672,0.5637 -1.6946,1.38598 -2.55277,1.8084 -1.32609,0.65274 -2.81107,1.0513 -4.15003,1.68294 -0.73501,0.3467 -1.24198,0.9229 -1.87621,1.37939 -1.10801,0.7975 -0.084,-0.1293 -1.07595,0.39742 -0.83268,0.44238 -1.8122,1.30572 -2.55276,1.8084 -1.83183,1.24344 0.47565,-0.27929 -1.41416,0.61207 -0.17077,0.0806 -0.27123,0.26685 -0.43069,0.36797 -0.6805,0.43151 -1.11773,0.8074 -1.63033,1.31836 -0.28705,0.28612 -0.53923,0.15217 -0.83001,0.3366 -0.10084,0.0639 -0.084,0.24294 -0.18483,0.3069 -0.21392,0.1357 -0.50847,0.075 -0.73758,0.18313 -0.108,0.0511 -0.084,0.24296 -0.18483,0.30692 -1.58326,1.00394 -0.0607,0.87711 -2.67484,1.31665 z"
       id="path11-8" />
    <path
       style="fill:#f99ff4;fill-opacity:1;stroke:#000000;stroke-width:0.264583"
       d="m 403.49143,144.68915 c -0.0652,-1.30875 -0.0305,-2.57436 -0.15473,-3.87211 -0.16328,-1.70568 0.0505,-3.28236 0.0995,-4.97616 0.0178,-0.60031 -0.22009,-1.1995 -0.17071,-1.78317 0.0803,-0.94883 0.45476,-1.88952 0.48265,-2.85342 0.005,-0.16882 -0.1201,-0.32369 -0.11916,-0.49244 0.004,-0.52494 0.57285,-1.46379 0.7209,-1.86853 0.82501,-2.25543 1.79866,-4.97464 3.76713,-6.51491 2.50247,-1.9581 -0.88596,0.8316 1.26492,-0.69693 0.58285,-0.41421 0.89373,-0.79682 1.54492,-1.1556 1.12437,-0.61949 0.0275,-0.007 1.23115,-0.29781 0.29017,-0.0702 0.54184,-0.26135 0.83201,-0.33158 1.69192,-0.40928 3.69956,-0.46994 5.1886,0.43904 0.25483,0.15556 0.60614,0.21358 0.76449,0.46669 0.19796,0.31643 -0.0436,0.89815 -0.10135,1.19735 -0.37103,1.93655 -1.02676,2.71338 -2.06135,4.40817 -0.48785,0.79919 -0.92003,1.70567 -1.49334,2.44632 -0.46817,0.60476 -0.79934,0.96563 -1.17957,1.58851 -0.0311,0.0509 0.0405,-0.12518 0.0933,-0.1529 0.2645,-0.13847 0.55228,-0.22728 0.83202,-0.33158 0.71652,-0.26707 1.42924,-0.54606 2.15651,-0.78224 1.01982,-0.33135 2.0528,-0.43268 3.04809,-0.86765 2.0422,-0.89246 3.98596,-2.33738 6.34239,-1.79479 0.0857,0.0194 2.06232,0.44459 2.1743,0.90755 0.21015,0.86865 -0.72519,2.60447 -1.31467,3.185 -0.1903,0.18735 -0.46529,0.26497 -0.67913,0.42492 -0.30239,0.22619 -0.56018,0.50884 -0.86578,0.7307 -0.64828,0.47063 -1.38911,0.8041 -2.03737,1.27472 -0.7701,0.55907 -1.70293,1.37574 -2.56362,1.79299 -1.33,0.64473 -2.81736,1.03433 -4.1601,1.65789 -0.73709,0.34227 -1.24752,0.9154 -1.88449,1.36806 -1.11279,0.79081 -0.0832,-0.1298 -1.07832,0.39094 -0.83533,0.43734 -1.82004,1.29476 -2.56362,1.79297 -1.83929,1.23238 0.47732,-0.27642 -1.41782,0.60355 -0.17126,0.0795 -0.27283,0.2652 -0.4329,0.36536 -0.68308,0.4274 -1.12257,0.80065 -1.63824,1.30851 -0.28877,0.28439 -0.54015,0.14892 -0.83203,0.33159 -0.10122,0.0633 -0.0855,0.24243 -0.18668,0.30578 -0.21473,0.13441 -0.50891,0.0719 -0.73867,0.17869 -0.1083,0.0504 -0.0855,0.24245 -0.18667,0.3058 -1.58928,0.99438 -0.066,0.87672 -2.68273,1.30051 z"
       id="path11-4" />
    <path
       style="fill:#f99ff4;fill-opacity:1;stroke:#000000;stroke-width:0.264583"
       d="m 85.736214,262.02564 c -1.26954,-0.32455 -2.468351,-0.73177 -3.744836,-0.99667 -1.677733,-0.34816 -3.120787,-1.01841 -4.72442,-1.56586 -0.568361,-0.19402 -1.210959,-0.14427 -1.753951,-0.36397 -0.882704,-0.35714 -1.670678,-0.99292 -2.583281,-1.30447 -0.159842,-0.0546 -0.344714,0.0194 -0.505661,-0.0317 -0.500284,-0.15901 -1.229075,-0.97991 -1.571962,-1.24095 -1.910823,-1.45481 -4.220758,-3.18867 -5.110385,-5.52444 -1.130962,-2.96942 0.532578,1.09216 -0.291916,-1.4144 -0.22343,-0.67924 -0.497069,-1.08932 -0.647351,-1.81745 -0.259471,-1.25724 0.0016,-0.0282 0.07939,-1.26417 0.01872,-0.29796 -0.08954,-0.59488 -0.07084,-0.89285 0.109105,-1.7373 0.644546,-3.67317 1.953032,-4.82701 0.223931,-0.19747 0.383185,-0.51592 0.67178,-0.59238 0.360808,-0.0956 0.845028,0.30744 1.113923,0.45069 1.740358,0.92683 2.288669,1.78289 3.601938,3.27217 0.619283,0.70228 1.357526,1.38307 1.895635,2.14968 0.439355,0.62601 0.686234,1.04904 1.168892,1.59639 0.03946,0.0448 -0.107628,-0.0757 -0.118495,-0.13432 -0.05412,-0.29361 -0.05392,-0.59478 -0.07085,-0.89286 -0.04334,-0.76343 -0.09918,-1.52678 -0.109923,-2.29136 -0.01508,-1.0722 0.193412,-2.08897 0.07205,-3.16835 -0.248974,-2.21474 -1.054825,-4.49873 0.160019,-6.5895 0.04391,-0.0762 1.034281,-1.83877 1.509653,-1.80892 0.891957,0.056 2.273765,1.4626 2.654128,2.19732 0.122731,0.23717 0.115594,0.52282 0.205204,0.77438 0.126707,0.35574 0.320524,0.68556 0.442146,1.04307 0.25799,0.75843 0.357601,1.56472 0.61559,2.32313 0.306467,0.90093 0.810944,2.03346 0.95515,2.97902 0.222829,1.46114 0.155423,2.9972 0.354217,4.46426 0.109103,0.80532 0.505769,1.46235 0.749946,2.20465 0.426563,1.29682 -0.148607,0.0412 0.05495,1.14568 0.170909,0.92728 0.698975,2.12142 0.95515,2.97903 0.633672,2.12137 -0.122991,-0.5377 0.157555,1.53286 0.02538,0.18712 0.172704,0.33903 0.221078,0.52155 0.206407,0.77889 0.433085,1.30906 0.765838,1.95181 0.186317,0.35992 -0.01736,0.56002 0.07083,0.89286 0.03058,0.11541 0.206341,0.1533 0.236956,0.26871 0.06489,0.24487 -0.08164,0.50746 -0.04764,0.75848 0.01612,0.11836 0.20635,0.15331 0.236957,0.26872 0.480198,1.81218 0.818065,0.32213 0.44947,2.94726 z"
       id="path11-9" />
    <path
       style="fill:#f99ff4;fill-opacity:1;stroke:#000000;stroke-width:0.264583"
       d="m 24.675,161.69675 c -0.22156,-1.2915 -0.33878,-2.55215 -0.61763,-3.82566 -0.36651,-1.67382 -0.34322,-3.26476 -0.49755,-4.95222 -0.0547,-0.59807 -0.36225,-1.16448 -0.38316,-1.74986 -0.034,-0.95161 0.22504,-1.93039 0.13722,-2.8907 -0.0154,-0.16819 -0.15832,-0.30682 -0.17728,-0.47463 -0.0589,-0.52163 0.3933,-1.52189 0.49177,-1.94144 0.54879,-2.33806 1.18956,-5.15435 2.95926,-6.91941 2.24978,-2.24388 -0.77991,0.93177 1.17229,-0.84349 0.52901,-0.48107 0.7918,-0.89819 1.39529,-1.33242 1.04204,-0.74976 0.0264,-0.01 1.18659,-0.4432 0.27968,-0.10445 0.50661,-0.32442 0.78629,-0.42889 1.63069,-0.60907 3.61659,-0.90989 5.20383,-0.1859 0.27164,0.1239 0.62735,0.1394 0.81489,0.3717 0.23448,0.29042 0.064,0.89694 0.0429,1.20088 -0.13628,1.96705 -0.6942,2.81687 -1.51823,4.62342 -0.38857,0.85189 -0.709,1.80363 -1.18942,2.60765 -0.39233,0.6565 -0.67786,1.05447 -0.98071,1.71842 -0.0248,0.0543 0.0252,-0.12914 0.0743,-0.16298 0.24599,-0.16918 0.52105,-0.29185 0.78629,-0.4289 0.67935,-0.35099 1.35352,-0.71336 2.04721,-1.03506 0.97279,-0.45114 1.98616,-0.67555 2.92215,-1.22666 1.92053,-1.13076 3.67713,-2.79821 6.0816,-2.54191 0.0875,0.009 2.10073,0.19424 2.26739,0.64044 0.31271,0.83722 -0.40785,2.67261 -0.92351,3.3196 -0.16647,0.2088 -0.43019,0.31881 -0.62331,0.50324 -0.27311,0.2608 -0.49518,0.5723 -0.77198,0.82918 -0.58722,0.54493 -1.28274,0.96478 -1.86994,1.5097 -0.69755,0.64732 -1.52578,1.5699 -2.33027,2.08728 -1.24315,0.79948 -2.67309,1.36453 -3.93145,2.14448 -0.69076,0.42812 -1.12883,1.0583 -1.70696,1.58404 -1.01001,0.91846 -0.0982,-0.11889 -1.02361,0.51752 -0.7769,0.5343 -1.65176,1.50355 -2.33027,2.08728 -1.67836,1.44391 0.44075,-0.33163 -1.33526,0.76914 -0.16049,0.0995 -0.23909,0.29598 -0.386,0.4146 -0.62694,0.50618 -1.01853,0.92941 -1.46963,1.49541 -0.25261,0.31693 -0.51839,0.21259 -0.7863,0.42889 -0.0929,0.075 -0.0558,0.25093 -0.14868,0.32596 -0.1971,0.15913 -0.49662,0.13246 -0.71194,0.26591 -0.10148,0.063 -0.0558,0.25094 -0.14868,0.32596 -1.45867,1.17766 0.0396,0.87831 -2.50755,1.61263 z"
       id="path11-5" />
    <path
       style="fill:#b4f99f;fill-opacity:1;stroke:#000000;stroke-width:0.264583"
       d="m 31.091742,233.30978 c -0.50821,1.53492 -1.94479,2.48218 -3.04524,3.58263 -0.22971,0.22971 -1.69537,1.99862 -1.97044,2.32871 -0.59711,0.71653 -1.23169,1.40341 -1.79132,2.14958 -1.00557,1.34076 -0.3792,0.78486 -1.43305,1.97044 -2.23275,2.51185 0.70726,-0.88639 -1.43305,1.25392 -0.64534,0.64534 -0.3871,0.64365 -0.89566,1.25392 -0.49704,0.59645 -1.7421,1.64367 -1.97045,2.32871 -0.62391,1.87174 3.34116,5.31161 4.47829,6.44874 0.83117,0.83117 1.71362,1.64141 2.50784,2.50784 1.24222,1.35514 0.76786,1.03289 1.97045,2.14958 1.19749,1.11195 2.61037,2.07297 3.76176,3.22436 0.37627,0.37627 0.68575,0.86489 1.07479,1.25392 0.3232,0.32321 0.41982,0.77809 0.71653,1.07479 0.0822,0.0822 1.21523,0.95368 1.25391,0.89566 0.10474,-0.15711 0.11943,-0.35826 0.17914,-0.5374 0.11942,-0.17913 0.23312,-0.3622 0.35826,-0.53739 0.5512,-0.77169 1.26502,-1.36014 1.79132,-2.14958 0.77855,-1.16783 0.77515,-1.53858 1.61218,-3.04523 0.64645,-1.16363 1.57112,-2.14211 2.32871,-3.22437 0.5579,-0.79701 1.0969,-1.68339 1.61218,-2.50784 0.52332,-0.83731 1.10126,-1.6563 1.61218,-2.50784 0.68826,-1.1471 -0.58901,0.81977 0.35827,-1.07479 0.0755,-0.15106 0.26458,-0.21774 0.35826,-0.35826 0.46077,-0.69116 -2.73955,-4.13439 -3.04524,-4.47829 -0.19831,-0.2231 -0.75494,-0.79336 -0.89565,-1.07479 -0.34752,-0.69504 -0.59256,-1.32747 -1.07479,-1.97045 -0.3303,-0.4404 -0.74449,-0.81351 -1.07479,-1.25392 -0.23478,-0.31304 -0.17763,-0.53439 -0.35827,-0.89565 -0.27426,-0.54854 -0.71789,-0.95721 -1.07478,-1.43306 -0.35377,-0.47169 -0.45997,-1.09905 -0.71653,-1.61218 -0.30986,-0.61972 -0.6881,-1.39041 -1.07479,-1.97045 -0.24346,-0.36519 -0.5393,-0.72034 -0.71652,-1.07478 -0.31257,-0.62514 -1.14668,-0.50205 -1.43305,-1.07479 -0.14912,-0.29822 -0.35337,-0.17423 -0.5374,-0.35827 -0.12372,-0.12371 -0.11157,-0.40651 -0.17913,-0.35826 -0.44796,0.31998 -0.83595,0.71653 -1.25392,1.07479 z"
       id="path12" />
    <path
       style="fill:#b4f99f;fill-opacity:1;stroke:#000000;stroke-width:0.264583"
       d="m 95.203825,16.214229 c -0.50821,1.53492 -1.94479,2.48218 -3.04524,3.58263 -0.22971,0.22971 -1.69537,1.99862 -1.97044,2.32871 -0.59711,0.71653 -1.23169,1.40341 -1.79132,2.14958 -1.00557,1.34076 -0.3792,0.78486 -1.43305,1.97044 -2.23275,2.51185 0.70726,-0.88639 -1.43305,1.25392 -0.64534,0.64534 -0.3871,0.64365 -0.89566,1.25392 -0.49704,0.59645 -1.7421,1.64367 -1.97045,2.32871 -0.62391,1.87174 3.34116,5.31161 4.47829,6.44874 0.83117,0.83117 1.71362,1.64141 2.50784,2.50784 1.24222,1.35514 0.76786,1.03289 1.97045,2.14958 1.19749,1.11195 2.61037,2.07297 3.76176,3.22436 0.376272,0.37627 0.685752,0.86489 1.074792,1.25392 0.3232,0.32321 0.41982,0.77809 0.71653,1.07479 0.0822,0.0822 1.21523,0.95368 1.25391,0.89566 0.10474,-0.15711 0.11943,-0.35826 0.17914,-0.5374 0.11942,-0.17913 0.23312,-0.3622 0.35826,-0.53739 0.5512,-0.77169 1.265023,-1.36014 1.791323,-2.14958 0.77855,-1.16783 0.77515,-1.53858 1.61218,-3.04523 0.64645,-1.16363 1.57112,-2.14211 2.32871,-3.22437 0.5579,-0.79701 1.0969,-1.68339 1.61218,-2.50784 0.52332,-0.83731 1.10126,-1.6563 1.61218,-2.50784 0.68826,-1.1471 -0.58901,0.81977 0.35827,-1.07479 0.0755,-0.15106 0.26458,-0.21774 0.35826,-0.35826 0.46077,-0.69116 -2.73955,-4.13439 -3.04524,-4.47829 -0.19831,-0.2231 -0.75494,-0.79336 -0.89565,-1.07479 -0.34752,-0.69504 -0.59256,-1.32747 -1.07479,-1.97045 -0.3303,-0.4404 -0.74449,-0.81351 -1.07479,-1.25392 -0.23478,-0.31304 -0.17763,-0.53439 -0.35827,-0.89565 -0.27426,-0.54854 -0.71789,-0.95721 -1.07478,-1.43306 -0.35377,-0.47169 -0.45997,-1.09905 -0.71653,-1.61218 -0.30986,-0.61972 -0.688103,-1.39041 -1.074793,-1.97045 -0.24346,-0.36519 -0.5393,-0.72034 -0.71652,-1.07478 -0.31257,-0.62514 -1.14668,-0.50205 -1.43305,-1.07479 -0.14912,-0.29822 -0.35337,-0.17423 -0.5374,-0.35827 -0.12372,-0.12371 -0.11157,-0.40651 -0.17913,-0.35826 -0.44796,0.31998 -0.83595,0.71653 -1.253922,1.07479 z"
       id="path12-74" />
    <path
       style="fill:#b4f99f;fill-opacity:1;stroke:#000000;stroke-width:0.264583"
       d="m 481.69467,235.98445 c -1.00441,1.26706 -2.67891,1.66338 -4.09035,2.31901 -0.29462,0.13686 -2.27861,1.29488 -2.6503,1.51044 -0.80686,0.4679 -1.63873,0.89509 -2.42057,1.40371 -1.40484,0.9139 -0.62566,0.60691 -2.02256,1.35849 -2.95955,1.59236 0.96864,-0.58961 -1.7765,0.68555 -0.82771,0.38448 -0.58459,0.47158 -1.2718,0.87009 -0.67163,0.3895 -2.2006,0.94547 -2.65031,1.51044 -1.22873,1.54366 1.31394,6.13596 1.99142,7.59444 0.4952,1.06605 1.04576,2.13006 1.49414,3.21654 0.70132,1.69931 0.36647,1.23376 1.11245,2.69552 0.74281,1.45555 1.73975,2.84332 2.42573,4.32009 0.22418,0.4826 0.34704,1.04778 0.57882,1.54675 0.19255,0.41454 0.12709,0.87494 0.30388,1.25549 0.049,0.10543 0.81383,1.313 0.87008,1.27179 0.15232,-0.11159 0.2352,-0.29546 0.35279,-0.4432 0.17367,-0.12723 0.34333,-0.26012 0.52102,-0.38168 0.78268,-0.53548 1.65517,-0.84302 2.42056,-1.40371 1.13224,-0.82946 1.25637,-1.17883 2.55989,-2.30641 1.00673,-0.87088 2.21117,-1.47232 3.29436,-2.2286 0.79767,-0.55696 1.60827,-1.20434 2.37534,-1.8017 0.77902,-0.60669 1.60306,-1.1774 2.37533,-1.80171 1.04033,-0.84099 -0.8347,0.56765 0.70558,-0.88639 0.12279,-0.11595 0.32326,-0.11364 0.45951,-0.21345 0.67008,-0.4909 -1.15318,-4.82374 -1.3222,-5.2517 -0.10963,-0.27764 -0.43658,-1.00437 -0.47209,-1.317 -0.0877,-0.77212 -0.10067,-1.45023 -0.33277,-2.21971 -0.15897,-0.52705 -0.41984,-1.0197 -0.57882,-1.54675 -0.113,-0.37463 0.0167,-0.5629 -0.0289,-0.96422 -0.0692,-0.60936 -0.34552,-1.14553 -0.51731,-1.715 -0.17026,-0.56449 -0.0546,-1.19017 -0.11932,-1.7602 -0.0782,-0.68844 -0.16878,-1.54215 -0.33277,-2.21971 -0.10325,-0.42659 -0.25913,-0.86173 -0.30386,-1.25548 -0.0789,-0.69445 -0.90454,-0.86529 -0.97681,-1.50154 -0.0376,-0.33129 -0.27205,-0.28498 -0.38169,-0.52103 -0.0737,-0.15867 0.0348,-0.4201 -0.0452,-0.39799 -0.53059,0.1467 -1.03118,0.38589 -1.54675,0.57883 z"
       id="path12-9" />
    <path
       style="fill:#b4f99f;fill-opacity:1;stroke:#000000;stroke-width:0.264583"
       d="m 417.15767,145.35166 c -0.50821,1.53492 -1.94479,2.48218 -3.04524,3.58263 -0.22971,0.22971 -1.69537,1.99862 -1.97044,2.32871 -0.59711,0.71653 -1.23169,1.40341 -1.79132,2.14958 -1.00557,1.34076 -0.3792,0.78486 -1.43305,1.97044 -2.23275,2.51185 0.70726,-0.88639 -1.43305,1.25392 -0.64534,0.64534 -0.3871,0.64365 -0.89566,1.25392 -0.49704,0.59645 -1.7421,1.64367 -1.97045,2.32871 -0.62391,1.87174 3.34116,5.31161 4.47829,6.44874 0.83117,0.83117 1.71362,1.64141 2.50784,2.50784 1.24222,1.35514 0.76786,1.03289 1.97045,2.14958 1.19749,1.11195 2.61037,2.07297 3.76176,3.22436 0.37627,0.37627 0.68575,0.86489 1.07479,1.25392 0.3232,0.32321 0.41982,0.77809 0.71653,1.07479 0.0822,0.0822 1.21523,0.95368 1.25391,0.89566 0.10474,-0.15711 0.11943,-0.35826 0.17914,-0.5374 0.11942,-0.17913 0.23312,-0.3622 0.35826,-0.53739 0.5512,-0.77169 1.26502,-1.36014 1.79132,-2.14958 0.77855,-1.16783 0.77515,-1.53858 1.61218,-3.04523 0.64645,-1.16363 1.57112,-2.14211 2.32871,-3.22437 0.5579,-0.79701 1.0969,-1.68339 1.61218,-2.50784 0.52332,-0.83731 1.10126,-1.6563 1.61218,-2.50784 0.68826,-1.1471 -0.58901,0.81977 0.35827,-1.07479 0.0755,-0.15106 0.26458,-0.21774 0.35826,-0.35826 0.46077,-0.69116 -2.73955,-4.13439 -3.04524,-4.47829 -0.19831,-0.2231 -0.75494,-0.79336 -0.89565,-1.07479 -0.34752,-0.69504 -0.59256,-1.32747 -1.07479,-1.97045 -0.3303,-0.4404 -0.74449,-0.81351 -1.07479,-1.25392 -0.23478,-0.31304 -0.17763,-0.53439 -0.35827,-0.89565 -0.27426,-0.54854 -0.71789,-0.95721 -1.07478,-1.43306 -0.35377,-0.47169 -0.45997,-1.09905 -0.71653,-1.61218 -0.30986,-0.61972 -0.6881,-1.39041 -1.07479,-1.97045 -0.24346,-0.36519 -0.5393,-0.72034 -0.71652,-1.07478 -0.31257,-0.62514 -1.14668,-0.50205 -1.43305,-1.07479 -0.14912,-0.29822 -0.35337,-0.17423 -0.5374,-0.35827 -0.12372,-0.12371 -0.11157,-0.40651 -0.17913,-0.35826 -0.44796,0.31998 -0.83595,0.71653 -1.25392,1.07479 z"
       id="path12-1" />
    <path
       style="fill:#b4f99f;fill-opacity:1;stroke:#000000;stroke-width:0.264583"
       d="m 38.800668,182.40566 c -1.158017,1.12839 -2.869435,1.30758 -4.353046,1.77756 -0.309692,0.0981 -2.425337,0.99323 -2.821523,1.15954 -0.860014,0.36102 -1.739633,0.67845 -2.58003,1.08304 -1.510068,0.72698 -0.698061,0.52202 -2.179515,1.08902 -3.138703,1.2013 1.036017,-0.46105 -1.849519,0.45303 -0.870038,0.27561 -0.640038,0.39304 -1.372514,0.70051 -0.715886,0.30052 -2.303342,0.65665 -2.821531,1.15954 -1.41584,1.37407 0.519434,6.25354 1.005076,7.7866 0.354974,1.12057 0.765105,2.24618 1.071041,3.38104 0.478518,1.77497 0.205875,1.27046 0.759035,2.81553 0.550817,1.53851 1.362332,3.04225 1.854064,4.59454 0.160696,0.50728 0.210364,1.08353 0.376519,1.60802 0.138027,0.43574 0.01429,0.884 0.141016,1.28402 0.03511,0.11082 0.639455,1.40619 0.700509,1.37251 0.165329,-0.0912 0.271009,-0.263 0.406513,-0.39451 0.1885,-0.10401 0.373737,-0.21414 0.5655,-0.31201 0.844668,-0.43112 1.74929,-0.62469 2.58003,-1.08303 1.228915,-0.67804 1.396648,-1.0087 2.833516,-1.96055 1.109724,-0.73515 2.381134,-1.17782 3.552034,-1.78955 0.862276,-0.45051 1.748936,-0.98905 2.586018,-1.48355 0.850142,-0.5022 1.74033,-0.96299 2.586019,-1.48354 1.139223,-0.70122 -0.900373,0.45639 0.813011,-0.78901 0.136587,-0.0993 0.33513,-0.0714 0.483001,-0.15301 0.72731,-0.40128 -0.5276,-4.93152 -0.640555,-5.37757 -0.07328,-0.28936 -0.304723,-1.0519 -0.300008,-1.36651 0.01163,-0.77699 0.0854,-1.45121 -0.04652,-2.24403 -0.09036,-0.54304 -0.286168,-1.06498 -0.37652,-1.60802 -0.06423,-0.38599 0.08845,-0.55615 0.09448,-0.96001 0.0092,-0.61321 -0.196374,-1.18028 -0.294006,-1.76702 -0.09678,-0.58162 0.09789,-1.1874 0.106482,-1.76103 0.01037,-0.69279 0.02958,-1.55108 -0.04652,-2.24403 -0.04791,-0.43628 -0.146944,-0.88777 -0.141011,-1.284 0.01046,-0.69885 -0.786608,-0.97375 -0.777021,-1.61402 0.005,-0.33339 -0.23342,-0.3174 -0.31201,-0.56551 -0.05284,-0.16679 0.08819,-0.41222 0.006,-0.40051 -0.544992,0.0777 -1.072017,0.25102 -1.608019,0.37652 z"
       id="path12-7" />
    <path
       style="fill:#f4b14d;fill-opacity:1;stroke:#000000;stroke-width:0.264583"
       d="m 406.86348,9.9445891 c 0.11942,0.4776799 0.1643,0.9804799 0.35826,1.4330499 0.39147,0.91343 1.14721,1.62955 1.61219,2.50784 0.27515,0.51974 0.44137,1.09245 0.71652,1.61219 0.7859,1.48447 1.93651,2.79823 2.68697,4.29915 0.16889,0.33777 0.17487,0.74467 0.35827,1.07479 0.40926,0.73668 1.05443,1.39234 1.43305,2.14958 0.0844,0.16888 0.0658,0.38633 0.17913,0.53739 0.0801,0.10682 0.2842,0.068 0.35826,0.17913 0.0662,0.0994 -0.0378,0.24497 0,0.35827 0.0299,0.0897 0.32613,0.68439 0.35827,0.71652 0.0944,0.0944 0.26385,0.0847 0.35826,0.17914 0.13351,0.13351 0.0744,0.38028 0.17913,0.53739 0.14052,0.21078 0.3854,0.33473 0.53739,0.53739 0.17142,0.22856 0.18998,0.72738 0.35827,0.89566 0.0944,0.0944 0.23884,0.11942 0.35826,0.17913 0.0597,0.17913 0.0744,0.38029 0.17913,0.5374 0.0265,0.0398 0.49645,0.13818 0.5374,0.17913 0.0828,0.0828 -0.0541,0.42924 0,0.53739 0.18415,0.36831 0.40456,1.1211 0.71652,1.43305 0.0422,0.0422 0.13691,-0.0422 0.17913,0 0.0897,0.0897 0.0617,0.59909 0.17914,0.71653 0.0422,0.0422 0.15242,-0.0534 0.17913,0 0.0534,0.10681 -0.0378,0.24497 0,0.35826 0.0618,0.18555 0.2694,0.35969 0.35826,0.5374 0.14109,0.28218 0.10556,1.73853 0.71652,1.43305 0.32006,-0.16003 0.56344,-1.17061 0.71653,-1.43305 0.45925,-0.78729 1.04496,-1.50402 1.43305,-2.32871 0.33052,-0.70235 0.56514,-1.44723 0.89566,-2.14958 1.1818,-2.51132 2.51721,-4.96652 3.58263,-7.52352 1.22873,-2.94895 2.87614,-5.75228 4.29916,-8.59831 0.17913,-0.35827 0.33131,-0.73132 0.53739,-1.0747899 0.15663,-0.26106 1.25392,-1.58356 1.25392,-1.79132 0,-0.0597 -0.11942,0 -0.17913,0 -0.35826,0 -0.72231,-0.0641 -1.07479,0 -0.42769,0.0778 -0.82667,0.27816 -1.25392,0.35827 -1.06288,0.19929 -2.14446,0.30142 -3.22437,0.35826 -1.85664,0.0977 -3.70246,0.20404 -5.55307,0.35826 -2.06264,0.17189 -0.0881,-0.23315 -2.14958,0.17913 -0.24141,0.0483 -0.47769,0.11942 -0.71653,0.17914 -0.29855,0.11942 -0.58176,0.28851 -0.89565,0.35826 -0.23316,0.0518 -0.48009,-0.0338 -0.71653,0 -2.25006,0.3214399 -4.34911,0.7165199 -6.62787,0.7165199 -0.59123,0 -1.34346,0.42993 -1.97044,0.17913 -0.44697,-0.17878 -0.83595,-0.47768 -1.25392,-0.7165199 z"
       id="path13" />
    <path
       style="fill:#f4b14d;fill-opacity:1;stroke:#000000;stroke-width:0.408568"
       d="m 450.01917,65.696135 c 0.0421,0.784979 -0.032,1.590384 0.12624,2.354956 0.31941,1.543151 1.22732,2.868787 1.66418,4.375426 0.25853,0.891575 0.34273,1.838665 0.60124,2.730238 0.73839,2.546494 2.05852,4.917588 2.74042,7.480909 0.15346,0.576855 0.049,1.220814 0.2259,1.789337 0.39463,1.268687 1.15739,2.470337 1.50141,3.763574 0.0767,0.28841 -0.011,0.626926 0.11295,0.894662 0.0876,0.189317 0.39741,0.180694 0.47499,0.375261 0.0694,0.174023 -0.12348,0.377011 -0.0996,0.565639 0.0188,0.149322 0.2874,1.164678 0.32555,1.2237 0.11203,0.173399 0.36295,0.201813 0.47499,0.375278 0.15843,0.245237 0.003,0.619587 0.11295,0.894659 0.14721,0.369042 0.47146,0.627931 0.63774,0.987107 0.18755,0.405092 0.076,1.197418 0.27573,1.506529 0.11203,0.173406 0.31666,0.250171 0.475,0.375268 0.0376,0.298221 0.003,0.619589 0.11293,0.894669 0.0277,0.0697 0.68881,0.34627 0.73741,0.42149 0.0983,0.15209 -0.19866,0.66371 -0.14946,0.84844 0.16732,0.62901 0.28083,1.8744 0.65106,2.447413 0.05,0.0775 0.2123,-0.0314 0.26241,0.0462 0.10645,0.16477 -0.0762,0.96178 0.0631,1.17748 0.05,0.0776 0.23813,-0.045 0.26241,0.0462 0.0485,0.18241 -0.12349,0.37702 -0.0996,0.56563 0.0389,0.30889 0.2946,0.6374 0.37535,0.9409 0.1282,0.48191 -0.32889,2.77205 0.65106,2.44742 0.51336,-0.17007 1.15095,-1.70277 1.4482,-2.07761 0.89172,-1.12446 1.94905,-2.1049 2.74693,-3.306783 0.67952,-1.02357 1.23038,-2.13906 1.90989,-3.16263 2.42967,-3.659912 5.06875,-7.191582 7.34064,-10.953646 2.62012,-4.338737 5.81306,-8.339522 8.68918,-12.465628 0.36205,-0.519415 0.68873,-1.069116 1.08615,-1.558208 0.30204,-0.371743 2.27728,-2.176549 2.33506,-2.504561 0.0166,-0.09426 -0.17493,-0.03082 -0.26241,-0.04623 -0.52482,-0.09245 -1.04028,-0.287599 -1.57444,-0.277357 -0.64815,0.01246 -1.28835,0.225832 -1.9365,0.242056 -1.61244,0.04036 -3.22523,-0.07751 -4.82299,-0.266448 -2.74695,-0.324869 -5.48045,-0.633305 -8.23428,-0.867383 -3.06934,-0.260897 -0.0642,-0.390833 -3.19871,-0.271903 -0.36707,0.01396 -0.73298,0.06527 -1.09946,0.09793 -0.47056,0.111496 -0.93246,0.305372 -1.41167,0.334492 -0.35596,0.02161 -0.69387,-0.177248 -1.04963,-0.184904 -3.3855,-0.07315 -6.57025,0.0089 -9.90838,-0.579121 -0.8661,-0.152572 -2.0876,0.332087 -2.93631,-0.225674 -0.60503,-0.397602 -1.09172,-0.969886 -1.63756,-1.454826 z"
       id="path13-2" />
    <path
       style="fill:#f4b14d;fill-opacity:1;stroke:#000000;stroke-width:0.264583"
       d="m 70.585827,59.652443 c -0.163609,0.464404 -0.40326,0.908689 -0.490833,1.393221 -0.17675,0.977938 0.0592,1.991989 -0.03685,2.981118 -0.05684,0.585325 -0.233774,1.154818 -0.290617,1.740143 -0.162336,1.671807 0.07373,3.402165 -0.12724,5.068166 -0.04522,0.374923 -0.264482,0.717748 -0.293382,1.094285 -0.0645,0.840256 0.112508,1.742921 0.01111,2.583447 -0.02265,0.187433 -0.158006,0.358629 -0.146692,0.547136 0.008,0.133278 0.199669,0.213368 0.200222,0.346913 4.58e-4,0.119426 -0.166549,0.183578 -0.197448,0.298951 -0.02449,0.09133 -0.105046,0.750811 -0.09593,0.795334 0.02674,0.130795 0.173484,0.216087 0.200215,0.346922 0.03783,0.184984 -0.147496,0.358319 -0.146692,0.547135 0.0011,0.253324 0.137114,0.491708 0.15225,0.744578 0.01708,0.285189 -0.242345,0.711648 -0.19466,0.944812 0.02675,0.130796 0.133481,0.231276 0.200221,0.346914 -0.04891,0.182373 -0.147502,0.358328 -0.146698,0.547144 1.78e-4,0.04781 0.3381,0.388902 0.349701,0.44564 0.02346,0.114723 -0.281703,0.328355 -0.296163,0.448414 -0.04932,0.408817 -0.280279,1.158438 -0.191891,1.590664 0.01196,0.05847 0.137499,0.04024 0.149472,0.09872 0.02541,0.124284 -0.278683,0.533902 -0.245411,0.696621 0.01196,0.05847 0.156613,0.03944 0.149471,0.09872 -0.01431,0.118555 -0.166548,0.183578 -0.197442,0.298943 -0.05069,0.188887 0.02656,0.448606 0.0028,0.645864 -0.03778,0.313216 -0.870047,1.508856 -0.19189,1.590664 0.355263,0.04286 1.115292,-0.666271 1.387669,-0.800888 0.817099,-0.403839 1.700833,-0.679105 2.479166,-1.153369 0.662871,-0.403907 1.26916,-0.896154 1.932031,-1.300061 2.370155,-1.444211 4.837557,-2.756937 7.135776,-4.303404 2.650499,-1.783519 5.570103,-3.214787 8.326003,-4.80535 0.346919,-0.20023 0.679496,-0.427645 1.040747,-0.600673 0.27457,-0.131515 1.919031,-0.630314 2.033531,-0.803675 0.0329,-0.04982 -0.09965,-0.06581 -0.149472,-0.09872 -0.298942,-0.197442 -0.56739,-0.451562 -0.896836,-0.592332 -0.399754,-0.170788 -0.843096,-0.223486 -1.243755,-0.392104 -0.99673,-0.419475 -1.955518,-0.93033 -2.887952,-1.478056 -1.603078,-0.941698 -3.20189,-1.870224 -4.831086,-2.761437 -1.815859,-0.993322 0.05498,-0.243101 -1.892394,-1.035195 -0.228059,-0.09274 -0.464413,-0.163614 -0.696621,-0.245411 -0.314933,-0.06489 -0.644439,-0.07988 -0.944799,-0.194663 -0.223103,-0.08527 -0.381973,-0.292789 -0.597893,-0.394891 -2.054667,-0.971822 -4.02391,-1.798974 -5.925374,-3.054833 -0.49334,-0.325836 -1.357963,-0.381655 -1.742914,-0.936468 -0.274437,-0.395511 -0.434285,-0.859294 -0.651423,-1.288939 z"
       id="path13-1" />
  </g>
</svg>
